<svg width="315" height="256" viewBox="0 0 315 256" fill="none" xmlns="http://www.w3.org/2000/svg">
<path d="M173.815 147.003C173.53 146.725 173.178 146.263 172.765 145.705C172.734 145.663 172.702 145.619 172.669 145.576C172.31 145.09 171.908 144.547 171.544 144.163C171.356 143.964 171.093 143.715 170.782 143.566C170.617 143.487 170.374 143.405 170.084 143.426C169.766 143.45 169.488 143.591 169.282 143.804C168.872 144.227 168.659 144.764 168.529 145.227C168.399 145.688 168.321 146.19 168.255 146.618L168.252 146.64C168.18 147.102 168.121 147.479 168.031 147.794C167.939 148.118 167.852 148.237 167.816 148.27C167.511 148.556 167.262 148.609 167.006 148.595C166.681 148.576 166.309 148.444 165.786 148.223C165.737 148.203 165.686 148.181 165.634 148.159C165.193 147.971 164.623 147.728 164.056 147.637C163.455 147.54 162.805 147.601 162.192 147.987C162.085 147.79 161.961 147.513 161.812 147.156C161.791 147.106 161.769 147.053 161.747 146.999C161.564 146.555 161.331 145.992 161.065 145.605C160.924 145.401 160.644 145.044 160.181 144.903C159.59 144.724 159.095 144.992 158.795 145.291C157.506 146.573 156.834 147.632 156.237 148.573C156.166 148.685 156.096 148.796 156.026 148.905C155.944 148.764 155.859 148.611 155.766 148.441C155.739 148.391 155.71 148.339 155.681 148.287C155.394 147.766 155.001 147.064 154.502 146.575C154.242 146.32 153.896 146.063 153.454 145.946C152.985 145.821 152.504 145.88 152.053 146.106L151.908 146.178L151.793 146.293C151.268 146.818 150.865 147.228 150.536 147.563C150.06 148.048 149.739 148.375 149.424 148.666C149.019 149.042 148.642 149.339 147.94 149.828C147.883 149.601 147.821 149.307 147.752 148.936C147.731 148.82 147.708 148.699 147.686 148.573C147.578 147.986 147.455 147.308 147.287 146.667C147.086 145.897 146.794 145.058 146.3 144.4L146.087 144.116L145.743 144.03C144.419 143.699 143.449 144.058 142.624 144.382C142.586 144.397 142.549 144.411 142.511 144.426C142.207 144.546 141.913 144.662 141.601 144.758C141.694 144.606 141.794 144.441 141.902 144.258C142.279 143.618 142.691 142.852 142.936 142.086C143.173 141.346 143.321 140.405 142.894 139.553L142.789 139.342L142.6 139.2C141.684 138.513 140.658 138.695 139.887 139.025C139.127 139.351 138.377 139.913 137.758 140.397C137.625 140.502 137.498 140.602 137.377 140.698C136.958 141.029 136.61 141.304 136.307 141.499C136.313 141.368 136.325 141.216 136.346 141.041C136.421 140.418 136.581 139.665 136.755 138.845L136.785 138.703C136.964 137.859 137.154 136.946 137.227 136.165C137.264 135.774 137.276 135.371 137.229 134.999C137.183 134.644 137.068 134.195 136.746 133.834C136.234 133.26 135.483 133.052 134.889 132.952C134.309 132.855 133.656 132.829 133.082 132.806C133.04 132.805 132.999 132.803 132.958 132.801C132.315 132.775 131.781 132.747 131.358 132.658C130.941 132.571 130.848 132.466 130.841 132.459C130.84 132.458 130.84 132.458 130.841 132.459C130.769 132.347 130.707 132.116 130.809 131.642C130.91 131.176 131.135 130.637 131.417 130.055C131.515 129.853 131.629 129.628 131.744 129.402C131.924 129.048 132.106 128.69 132.233 128.404C132.343 128.156 132.455 127.874 132.512 127.598C132.561 127.365 132.629 126.875 132.323 126.432C131.761 125.618 130.869 125.424 130.158 125.398C129.501 125.374 128.768 125.487 128.152 125.582C128.107 125.589 128.062 125.596 128.018 125.603C127.313 125.711 126.767 125.783 126.349 125.744C126.044 125.716 125.954 125.647 125.917 125.593C125.916 125.567 125.918 125.516 125.932 125.432C125.965 125.238 126.046 124.97 126.186 124.625C126.465 123.934 126.904 123.11 127.379 122.22L127.4 122.18C127.853 121.331 128.339 120.421 128.662 119.625C128.827 119.22 128.969 118.8 129.037 118.402C129.101 118.023 129.125 117.524 128.898 117.06C128.487 116.222 127.667 115.846 126.988 115.648C126.321 115.454 125.545 115.363 124.875 115.284C124.848 115.281 124.821 115.278 124.794 115.275C124.056 115.188 123.449 115.111 122.984 114.965C122.578 114.837 122.473 114.716 122.445 114.668C122.45 114.631 122.483 114.461 122.784 114.082C123.161 113.607 123.736 113.082 124.399 112.483L124.461 112.427C125.072 111.876 125.756 111.259 126.245 110.655C126.697 110.098 127.297 109.18 126.944 108.17C126.651 107.332 126.075 106.807 125.464 106.462C124.91 106.15 124.276 105.96 123.771 105.808C123.75 105.802 123.729 105.796 123.708 105.79C123.139 105.618 122.729 105.488 122.419 105.303C122.155 105.146 122.029 104.988 121.97 104.758C121.971 104.755 121.961 104.614 122.227 104.243C122.504 103.859 122.922 103.439 123.422 102.945C123.444 102.923 123.467 102.901 123.489 102.879C123.941 102.433 124.459 101.923 124.84 101.414C125.213 100.916 125.662 100.157 125.478 99.2927C125.146 97.7229 125.347 96.0354 125.623 94.2265C125.647 94.0667 125.672 93.9052 125.697 93.7423C125.941 92.1774 126.203 90.4898 126.003 88.9538C126.011 88.9502 126.019 88.9464 126.028 88.9425C126.299 88.8202 126.74 88.7427 127.37 88.6535C127.415 88.6472 127.462 88.6407 127.509 88.6341C128.032 88.5612 128.69 88.4694 129.205 88.2757C129.495 88.1666 129.852 87.9869 130.125 87.6641C130.416 87.3185 130.543 86.8897 130.5 86.4371C130.481 85.7764 130.166 85.2116 129.865 84.7857C129.583 84.3869 129.222 83.9869 128.9 83.6311C128.862 83.5887 128.824 83.547 128.787 83.5059C128.416 83.0945 128.096 82.7258 127.858 82.3575C127.71 82.1288 127.613 81.9271 127.556 81.7457C127.882 81.3348 128.161 81.1491 128.369 81.0606C128.62 80.9538 128.87 80.9436 129.161 80.9884C129.313 81.0118 129.464 81.048 129.638 81.0923C129.655 81.0967 129.673 81.1014 129.692 81.1062C129.84 81.1441 130.031 81.1928 130.207 81.2215C130.402 81.253 130.714 81.286 131.043 81.1832C131.43 81.0625 131.721 80.7954 131.895 80.447L131.926 80.3837L131.949 80.3164C132.159 79.6862 132.087 79.0967 131.963 78.6014C131.892 78.3169 131.775 77.9712 131.668 77.6558C131.612 77.492 131.56 77.3364 131.518 77.2019C131.264 76.3916 131.067 75.446 131.371 74.1298C131.586 74.0378 131.81 74.0513 132.098 74.1557C132.567 74.3258 133.104 74.7141 133.722 75.2478C133.913 75.4127 134.122 75.6019 134.337 75.7964C134.737 76.1582 135.157 76.5384 135.518 76.815C135.81 77.0394 136.15 77.2669 136.513 77.4069C136.883 77.5496 137.382 77.639 137.895 77.4192C138.354 77.2227 138.494 76.8116 138.535 76.6564C138.583 76.4744 138.586 76.2994 138.584 76.1826C138.58 75.9384 138.54 75.6485 138.497 75.3778C138.464 75.1729 138.428 74.963 138.39 74.7466C138.318 74.3317 138.241 73.8928 138.181 73.4184C138.09 72.7062 138.059 72.0596 138.137 71.5643C138.19 71.2356 138.273 71.0675 138.346 70.9795C139.055 70.9728 140.314 71.2689 142.639 72.6485C143.206 74.6294 144.184 76.1314 145.442 77.2603C146.774 78.4552 148.372 79.1908 150.013 79.6694C151.652 80.147 153.374 80.3799 154.979 80.5429C155.544 80.6003 156.085 80.6485 156.605 80.6947C157.6 80.7833 158.515 80.8646 159.353 80.9892L159.464 81.0057L159.577 80.9971C165.926 80.5086 170.171 80.0113 174.791 76.0724C175.803 76.2146 176.768 76.0736 177.566 75.9572C177.615 75.9499 177.664 75.9428 177.713 75.9358C178.718 75.7905 179.449 75.714 180.122 75.9282C180.122 75.9342 180.122 75.9405 180.122 75.9472C180.12 76.2156 180.013 76.6026 179.833 77.1873C179.825 77.2153 179.816 77.244 179.807 77.2732C179.657 77.7583 179.459 78.4014 179.438 78.9783C179.426 79.3022 179.463 79.6963 179.658 80.0729C179.868 80.4753 180.21 80.7641 180.635 80.931C181.759 81.3721 182.777 81.2839 183.551 81.2169C183.584 81.2141 183.616 81.2113 183.648 81.2085C184.321 81.1511 184.799 81.1281 185.261 81.2766C185.149 81.5007 184.96 81.7914 184.702 82.1762C184.687 82.1983 184.672 82.2209 184.656 82.2438C184.375 82.6616 184.006 83.2103 183.819 83.7229C183.718 84.0011 183.622 84.3909 183.709 84.8114C183.809 85.289 184.111 85.6521 184.517 85.8759C184.943 86.1104 185.426 86.1872 185.82 86.2194C186.21 86.2512 186.628 86.2459 186.99 86.2414L187.033 86.2408C187.428 86.2359 187.757 86.2335 188.038 86.2594C188.325 86.2859 188.444 86.3336 188.475 86.3514C188.477 86.3722 188.478 86.4074 188.473 86.4608C188.448 86.7309 188.32 87.0927 188.114 87.6281C188.104 87.6555 188.093 87.6834 188.082 87.712C187.908 88.1613 187.68 88.7504 187.61 89.302C187.528 89.9464 187.638 90.7773 188.434 91.3242C188.96 91.6862 189.583 91.8303 190.13 91.8998C190.661 91.9674 191.232 91.9758 191.732 91.9832L191.793 91.9841C192.337 91.9923 192.797 92.002 193.189 92.0584C193.468 92.0985 193.646 92.1543 193.758 92.2079C193.741 92.3776 193.679 92.6075 193.574 92.9588C193.567 92.9801 193.561 93.002 193.554 93.0245C193.461 93.334 193.335 93.7529 193.295 94.1462C193.252 94.5708 193.279 95.2377 193.824 95.7373C194.439 96.301 194.565 96.8475 194.67 97.6217C194.679 97.6899 194.689 97.7611 194.698 97.8349C194.789 98.5541 194.912 99.5243 195.591 100.458C195.35 100.719 194.912 101.022 194.316 101.415C194.281 101.438 194.245 101.462 194.208 101.486C193.694 101.824 193.073 102.233 192.636 102.663C192.4 102.896 192.136 103.212 191.998 103.61C191.842 104.06 191.869 104.557 192.142 105.013C192.632 105.833 193.135 106.354 193.524 106.757C193.585 106.82 193.643 106.88 193.697 106.938C194.078 107.341 194.345 107.672 194.548 108.305C194.556 108.331 194.56 108.349 194.562 108.362C194.559 108.367 194.554 108.372 194.548 108.378C194.436 108.498 194.212 108.633 193.767 108.858C193.734 108.875 193.7 108.892 193.664 108.91C193.3 109.093 192.808 109.341 192.413 109.668C191.939 110.061 191.5 110.652 191.5 111.5C191.5 111.819 191.59 112.11 191.676 112.331C191.766 112.56 191.883 112.793 191.994 113.005C192.042 113.097 192.091 113.188 192.139 113.279C192.327 113.632 192.511 113.978 192.671 114.369C193.039 115.268 193.218 116.261 192.663 117.437C192.583 117.444 192.462 117.446 192.24 117.446L192.224 117.446C191.988 117.446 191.586 117.446 191.201 117.572C190.736 117.724 190.312 118.051 190.077 118.616C189.861 119.136 189.797 119.717 189.78 120.237C189.764 120.705 189.785 121.205 189.804 121.662C189.806 121.718 189.808 121.774 189.811 121.829C189.832 122.351 189.844 122.81 189.813 123.211C189.782 123.612 189.713 123.857 189.636 123.996C189.626 123.999 189.613 124.002 189.593 124.005C189.438 124.03 189.228 124.014 188.836 123.976L188.802 123.973C188.482 123.942 188 123.895 187.544 123.983C186.996 124.088 186.446 124.393 186.111 125.041C185.811 125.622 185.862 126.286 185.937 126.761C186.014 127.249 186.164 127.778 186.294 128.237L186.31 128.296C186.453 128.8 186.569 129.221 186.62 129.574C186.63 129.648 186.637 129.71 186.64 129.762C186.419 129.724 186.138 129.645 185.769 129.537L185.72 129.523C185.331 129.409 184.823 129.26 184.367 129.221C183.924 129.182 183.08 129.214 182.631 130.006C182.259 130.66 182.273 131.372 182.366 131.946C182.456 132.5 182.647 133.074 182.808 133.555L182.824 133.604C183.001 134.135 183.138 134.557 183.193 134.921C183.205 135.006 183.212 135.078 183.214 135.139C183.089 135.077 182.934 134.992 182.738 134.881C182.721 134.871 182.704 134.861 182.686 134.851C182.377 134.676 181.93 134.423 181.497 134.309C181.254 134.244 180.924 134.197 180.57 134.288C180.184 134.389 179.873 134.629 179.66 134.957C179.231 135.621 179.257 136.401 179.347 136.993C179.438 137.587 179.634 138.227 179.803 138.777L179.82 138.834C180.005 139.438 180.154 139.938 180.213 140.358C180.253 140.648 180.233 140.793 180.217 140.856C180.171 140.864 180.086 140.87 179.944 140.86C179.571 140.833 179.098 140.713 178.501 140.554L178.429 140.534C177.901 140.393 177.268 140.224 176.702 140.176C176.148 140.129 175.274 140.162 174.711 140.886C174.151 141.606 174.082 142.464 174.116 143.161C174.139 143.627 174.222 144.161 174.295 144.623C174.325 144.819 174.354 145.001 174.375 145.161C174.458 145.79 174.457 146.205 174.362 146.489C174.303 146.662 174.193 146.849 173.815 147.003ZM180.264 140.843C180.264 140.844 180.261 140.845 180.255 140.847C180.261 140.844 180.264 140.843 180.264 140.843ZM183.534 135.265C183.534 135.265 183.533 135.265 183.531 135.265C183.533 135.265 183.534 135.265 183.534 135.265ZM186.91 129.785C186.91 129.785 186.906 129.786 186.896 129.786C186.905 129.785 186.91 129.785 186.91 129.785ZM194.565 108.384C194.564 108.384 194.564 108.383 194.565 108.381C194.565 108.383 194.565 108.384 194.565 108.384ZM185.361 81.0205C185.361 81.0205 185.361 81.0217 185.36 81.0241C185.361 81.0217 185.361 81.0205 185.361 81.0205ZM148.118 150.336C148.118 150.336 148.115 150.332 148.111 150.324C148.116 150.331 148.118 150.335 148.118 150.336ZM155.647 149.472C155.647 149.471 155.649 149.469 155.654 149.464C155.649 149.47 155.647 149.472 155.647 149.472ZM156.378 149.423C156.384 149.428 156.387 149.431 156.387 149.431C156.387 149.432 156.384 149.429 156.378 149.423ZM162.387 148.276C162.387 148.277 162.385 148.275 162.38 148.27C162.384 148.274 162.387 148.276 162.387 148.276Z" stroke="#FF2173" stroke-width="2"/>
<path fill-rule="evenodd" clip-rule="evenodd" d="M89.208 77.277C90.314 76.1887 91 74.6744 91 73C91 69.6863 88.3135 67 85 67C81.6865 67 79 69.6863 79 73C79 73.8961 79.1963 74.7462 79.5483 75.5098C69.311 79.2332 62.2798 79.7501 57.0615 79.7501L56.6353 79.7488C56.2231 79.7466 55.8179 79.7413 55.4204 79.7345L54.8901 79.7245L54.0312 79.7058C52.2222 79.6652 50.5859 79.6285 49.1387 79.7538C46.8267 79.9542 44.7969 80.5702 42.8481 82.2408C41.1899 83.6626 38.5254 85.2757 35.2646 86.9795C32.0205 88.6748 28.249 90.4278 24.4185 92.1383C21.9478 93.2414 19.4454 94.3297 17.0469 95.3729L17.0454 95.3735L17.0444 95.374L17.0441 95.3741C14.026 96.6866 11.173 97.9273 8.75635 99.0354C8.14893 97.2691 6.47266 96 4.5 96C2.01465 96 0 98.0147 0 100.5C0 102.985 2.01465 105 4.5 105C5.76318 105 6.9043 104.48 7.72168 103.642C7.92285 103.751 8.11621 103.863 8.29834 103.98C8.3418 104.008 8.38477 104.036 8.42676 104.065C8.54297 104.143 8.65381 104.224 8.7583 104.308C9.17773 104.644 9.43701 104.979 9.55322 105.321C9.69434 105.738 9.66064 106.25 9.4292 106.882C9.19824 107.514 8.80322 108.174 8.354 108.821L8.20508 109.033L8.11719 109.156L7.98828 109.332C7.88672 109.47 7.78564 109.605 7.68652 109.737L7.59131 109.864L7.57812 109.881L7.5005 109.985C7.41654 110.097 7.33381 110.207 7.25537 110.314C7.19385 110.397 7.13525 110.478 7.08057 110.556L7.02197 110.64C6.61865 110.877 6.2749 111.089 5.99561 111.275L6.46826 111.987C6.47217 112.211 6.53564 112.493 6.75098 112.742L6.89014 112.622L7.10156 112.941C7.31641 112.799 7.57324 112.638 7.87305 112.459C9.56006 112.255 12.5332 112.255 15.5439 112.712C18.7432 113.199 21.7163 114.164 23.3008 115.715C25.3594 117.729 28.2856 122.685 29.6973 127.708C30.4004 130.208 30.6997 132.631 30.3843 134.65C30.2305 135.634 29.9351 136.51 29.4727 137.258L28.4482 138.469C28.1675 138.713 27.855 138.934 27.5093 139.128L28.4897 140.872C28.8237 140.684 29.1338 140.478 29.4209 140.257L29.499 140.323L29.8813 139.871C30.3535 139.441 30.7534 138.963 31.0879 138.446L32.3408 136.968L33.4546 135.657C45.6426 126.678 56.8457 126.846 65.2642 126.972C66.2129 126.986 67.126 127 68.0015 127C72.5728 127 80.3335 128.788 86.8818 131.728C90.1494 133.195 93.0454 134.918 95.0703 136.792C95.9551 137.611 96.6475 138.433 97.1377 139.252C97.4282 140.382 97.7261 141.546 98.0308 142.746L99 142.5L99.9976 142.566C100.094 141.125 99.7144 139.761 99.0063 138.491C98.8154 137.75 98.6274 137.024 98.4429 136.311C107.211 134.352 113.252 133.997 117.702 134.923C122.201 135.859 125.15 138.122 127.694 141.591C132.988 148.81 134 158.933 129.633 166.5L131.365 167.5C132.02 166.366 132.563 165.184 133 163.967V164H141.402L141.02 173.022C140.989 173.02 140.959 173.018 140.93 173.016C140.893 173.013 140.857 173.011 140.821 173.009C140.712 173.003 140.605 173 140.5 173C136.911 173 134.5 177.962 134.5 181C134.5 183.5 137 182.5 139 181C139.527 180.964 139.928 181.218 140.344 181.482C140.542 181.607 140.744 181.735 140.965 181.835C140.907 182.893 141.064 184.407 141.376 186.067C141.746 188.034 142.354 190.325 143.189 192.54C144.021 194.748 145.095 196.925 146.411 198.634C147.717 200.329 149.359 201.682 151.348 201.988L151.652 200.012C150.392 199.818 149.158 198.921 147.995 197.413C146.843 195.918 145.854 193.94 145.061 191.835C144.271 189.737 143.692 187.56 143.342 185.698C143.086 184.334 142.964 183.199 142.953 182.407C143.009 182.429 143.063 182.451 143.117 182.473C143.158 182.49 143.198 182.507 143.238 182.524C143.271 182.538 143.303 182.551 143.334 182.564L143.351 182.571C143.895 182.8 144.371 183 145 183C145.847 183 145.672 182.245 145.472 181.381L145.472 181.381L145.472 181.38C145.254 180.442 145.007 179.375 146 179C147.028 178.612 148.071 179.183 148.833 179.601C149.535 179.985 150 180.24 150 179.5C150 177.103 146.32 174.441 143.004 173.425L143.351 165.248C143.546 165.488 143.755 165.719 143.973 165.942C145.182 167.176 146.832 168.309 148.441 169.392L148.812 169.641C150.331 170.662 151.811 171.656 153.026 172.727C154.346 173.889 155.228 175.035 155.53 176.242L157.234 175.816L158.939 176.242C159.241 175.034 160.121 173.888 161.438 172.727C162.652 171.656 164.129 170.662 165.646 169.641L166.016 169.392C167.623 168.309 169.27 167.176 170.477 165.942C170.695 165.72 170.903 165.489 171.097 165.25L171.443 173.426C168.132 174.442 164.459 177.103 164.459 179.5C164.459 180.24 164.923 179.985 165.624 179.601C166.385 179.183 167.426 178.612 168.452 179C169.444 179.375 169.197 180.442 168.98 181.38C168.78 182.245 168.606 183 169.451 183C170.08 183 170.555 182.8 171.098 182.571C171.173 182.539 171.25 182.507 171.328 182.475C171.383 182.452 171.437 182.43 171.494 182.408C171.482 183.199 171.361 184.335 171.105 185.699C170.756 187.56 170.179 189.738 169.389 191.835C168.598 193.94 167.61 195.919 166.46 197.413C165.299 198.921 164.068 199.817 162.81 200.011L163.113 201.989C165.1 201.683 166.739 200.329 168.043 198.634C169.358 196.925 170.429 194.747 171.26 192.54C172.093 190.325 172.701 188.033 173.07 186.067C173.381 184.406 173.538 182.892 173.481 181.835C173.701 181.735 173.902 181.607 174.1 181.482L174.1 181.482C174.515 181.218 174.915 180.964 175.442 181C177.438 182.5 179.934 183.5 179.934 181C179.934 177.962 177.528 173 173.943 173C173.776 173 173.603 173.008 173.427 173.022L173.045 164H181.432V163.972C181.868 165.187 182.41 166.368 183.063 167.5L184.795 166.5C180.435 158.932 181.446 148.809 186.731 141.591C189.27 138.122 192.215 135.86 196.706 134.923C201.148 133.997 207.178 134.352 215.932 136.312C215.748 137.023 215.561 137.749 215.37 138.49C214.663 139.76 214.284 141.124 214.38 142.566L215.378 142.5L216.347 142.745C216.652 141.545 216.949 140.381 217.239 139.252C217.729 138.432 218.42 137.61 219.303 136.792C221.325 134.918 224.216 133.194 227.478 131.727C234.016 128.788 241.764 127 246.328 127C247.202 127 248.113 126.986 249.061 126.972C257.466 126.846 268.65 126.678 280.818 135.657C281.595 136.572 282.382 137.501 283.181 138.446C283.515 138.963 283.914 139.441 284.386 139.871L284.768 140.324L284.846 140.258C285.133 140.479 285.442 140.684 285.776 140.872L286.755 139.128C286.411 138.933 286.099 138.713 285.819 138.469C285.475 138.062 285.134 137.658 284.795 137.257C284.334 136.509 284.039 135.633 283.885 134.65C283.571 132.631 283.869 130.209 284.571 127.708C285.981 122.685 288.902 117.73 290.958 115.715C292.539 114.165 295.508 113.199 298.701 112.713C301.708 112.255 304.676 112.256 306.36 112.46C306.658 112.638 306.915 112.799 307.13 112.941L307.341 112.622L307.481 112.742C307.697 112.492 307.76 112.21 307.763 111.985L308.234 111.274C307.955 111.089 307.612 110.877 307.21 110.64C307.191 110.612 307.171 110.584 307.152 110.557C307.002 110.344 306.824 110.107 306.643 109.866L306.643 109.865L306.642 109.865L306.642 109.865L306.547 109.738C306.329 109.447 306.102 109.141 305.881 108.821C305.432 108.175 305.038 107.515 304.807 106.883C304.576 106.251 304.542 105.738 304.684 105.321C304.8 104.979 305.059 104.644 305.478 104.308C305.778 104.067 306.131 103.848 306.511 103.642C307.327 104.48 308.467 105 309.727 105C312.209 105 314.22 102.985 314.22 100.5C314.22 98.0147 312.209 96 309.727 96C307.246 96 305.235 98.0147 305.235 100.5C305.235 101.001 305.316 101.483 305.467 101.933C305.049 102.164 304.618 102.432 304.225 102.748C303.634 103.222 303.071 103.849 302.789 104.679C302.449 105.685 302.61 106.696 302.929 107.568C303.05 107.9 303.198 108.225 303.363 108.538C300.443 107.016 296.577 105.101 292.162 102.965C284.322 99.1728 274.665 94.6444 265.275 90.2931C255.884 85.9414 246.757 81.7652 239.978 78.677C237.893 77.7268 236.029 76.8795 234.448 76.1618C235.018 75.2437 235.346 74.1603 235.346 73C235.346 69.6863 232.664 67 229.356 67C226.048 67 223.366 69.6863 223.366 73C223.366 74.6745 224.05 76.1887 225.155 77.2771L209.886 97.6684C209.152 97.2433 208.3 97 207.391 97C206.332 97 205.35 97.3301 204.543 97.8931L193.656 94.1108L193 96L203.068 99.4979C202.642 100.234 202.399 101.088 202.399 102C202.399 104.761 204.634 107 207.391 107C210.148 107 212.383 104.761 212.383 102C212.383 100.875 212.012 99.8371 211.386 99.0017L226.768 78.459C225.332 100.538 223.035 109.271 218.18 127.721L218.18 127.721L218.176 127.737C217.629 129.815 217.05 132.016 216.436 134.374C207.553 132.381 201.17 131.949 196.299 132.965C191.237 134.02 187.892 136.62 185.118 140.409C181.417 145.465 179.631 151.869 180.15 158.02L176.293 152.968L171.344 143.053L169.556 143.947L174.548 153.947L174.59 154.032L174.648 154.107L180.673 162H172.534L172.462 161.794C172.461 161.667 172.455 161.539 172.443 161.409L172.333 161.419L170.204 155.26L170.173 155.17L170.125 155.087L166.323 148.5L164.592 149.5L168.347 156.004L170.449 162.086C170.364 162.871 169.906 163.667 169.049 164.542C168.01 165.605 166.538 166.629 164.9 167.733C164.775 167.817 164.649 167.902 164.522 167.987L164.51 167.995C163.02 168.998 161.435 170.064 160.117 171.226C158.89 172.309 157.801 173.553 157.235 175.018C156.668 173.553 155.578 172.309 154.349 171.226C153.029 170.064 151.443 168.999 149.95 167.996L149.95 167.996L149.949 167.995L149.559 167.733C147.918 166.629 146.443 165.606 145.402 164.542C144.544 163.667 144.085 162.872 144 162.087L146.105 156.004L149.866 149.5L148.134 148.499L144.326 155.086L144.278 155.169L144.247 155.26L142.114 161.42L142.004 161.409C141.992 161.539 141.986 161.667 141.985 161.793L141.914 162H133.759L139.794 154.107L139.852 154.032L139.895 153.947L144.895 143.947L143.105 143.053L138.148 152.968L134.282 158.023C134.804 151.871 133.014 145.465 129.307 140.409C126.528 136.619 123.179 134.02 118.109 132.965C113.231 131.95 106.837 132.381 97.939 134.375C97.3223 132.011 96.7412 129.804 96.1919 127.721L96.1904 127.714C91.3286 109.267 89.0278 100.534 87.5894 78.4527L103 98.9999C102.372 99.8356 102 100.874 102 102C102 104.761 104.239 107 107 107C109.761 107 112 104.761 112 102C112 101.589 111.95 101.19 111.857 100.808L127.895 92.7889L127 91L111 98.9999C110.088 97.7855 108.636 97 107 97C106.09 97 105.237 97.2432 104.501 97.6683L89.208 77.277ZM8.92676 101.313C8.91455 101.38 8.90039 101.447 8.88525 101.513C8.85205 101.656 8.8125 101.797 8.7666 101.934C9.18506 102.165 9.61621 102.433 10.0088 102.747C10.6006 103.222 11.1655 103.849 11.4473 104.679C11.7886 105.685 11.6265 106.697 11.3076 107.569C11.1865 107.901 11.0371 108.226 10.8726 108.54C13.7974 107.017 17.6704 105.102 22.0938 102.965C29.9458 99.1732 39.6187 94.6447 49.0239 90.2934C57.0405 86.5844 64.8652 83.0028 71.2051 80.1138C65.3403 81.493 60.7725 81.7501 57.0615 81.7501C55.875 81.7501 54.8066 81.7255 53.8262 81.7029L53.8246 81.7028H53.8246C52.1056 81.6632 50.6558 81.6299 49.3115 81.7463C47.2959 81.921 45.7007 82.4299 44.1499 83.7593C42.3091 85.3375 39.4736 87.0368 36.1909 88.7521C32.8921 90.476 29.0767 92.2486 25.2339 93.9645C22.6963 95.0975 20.1548 96.2028 17.7373 97.2538C14.4766 98.6718 11.4434 99.9908 8.9541 101.146C8.9458 101.202 8.93652 101.258 8.92676 101.313ZM81.2998 77.7233C81.8735 78.1736 82.5317 78.5214 83.2461 78.7396C62.9854 98.9895 50.6392 112.39 32.4893 133.706C32.6006 131.621 32.2402 129.363 31.6226 127.167C30.1416 121.898 27.0679 116.603 24.6992 114.285C22.6353 112.265 19.1084 111.231 15.8447 110.735C14.4336 110.521 13.022 110.4 11.7222 110.352C14.5938 108.856 18.4644 106.939 22.9634 104.766C30.8008 100.981 40.4624 96.4582 49.8638 92.1086C59.2642 87.7593 68.4014 83.585 75.1885 80.4979L78.9292 78.7985L81.2998 77.7233ZM37.8999 130.454C54.2476 111.413 66.3281 98.4454 85.6333 79.1817C87.0888 101.031 89.431 109.917 94.2637 128.253L94.2642 128.254L94.2738 128.291C94.8247 130.381 95.4079 132.593 96.0259 134.962C93.8179 133.033 90.8745 131.328 87.7007 129.903C80.9722 126.882 72.9287 125 68.0015 125C67.1431 125 66.2397 124.986 65.2939 124.971C58.0996 124.858 48.4702 124.708 37.8999 130.454ZM171 77C171 80.7905 168 83.5 165 86C164 82 161.492 82 159.5 82C157 82 155 82 154.5 86.5C154.057 86.0567 153.603 85.6198 153.15 85.1848L153.15 85.1844C150.542 82.6754 148 80.2302 148 77C148 71.4772 153.149 67 159.5 67C165.851 67 171 71.4772 171 77ZM231.108 78.7392C231.821 78.5212 232.478 78.1735 233.05 77.7237C234.746 78.4933 236.808 79.4308 239.152 80.4982C245.928 83.5853 255.05 87.7596 264.436 92.1089C273.822 96.4585 283.468 100.982 291.293 104.767C295.784 106.939 299.647 108.855 302.514 110.351C301.217 110.399 299.809 110.52 298.401 110.734C295.142 111.23 291.621 112.265 289.56 114.285C287.195 116.603 284.126 121.897 282.647 127.166C282.031 129.362 281.671 131.619 281.782 133.703C263.662 112.388 251.336 98.9884 231.108 78.7392ZM228.725 79.1842C227.271 101.032 224.933 109.918 220.108 128.254L220.108 128.254L220.107 128.256C219.555 130.355 218.97 132.578 218.35 134.958C220.554 133.031 223.491 131.327 226.658 129.903C233.376 126.882 241.407 125 246.327 125C247.183 125 248.085 124.986 249.029 124.971L249.03 124.971C256.212 124.858 265.826 124.708 276.378 130.453C260.058 111.413 247.998 98.4461 228.725 79.1842Z" fill="#FF2173"/>
<path fill-rule="evenodd" clip-rule="evenodd" d="M158.5 53.5232C158.756 42.5212 154.667 31.4472 148.769 22.6313C142.886 13.8394 135.09 7.12851 127.775 5.03832L127.259 6.84422L126.976 6.88457C128.479 17.4144 128.107 24.0137 127.364 29.969C127.188 31.3809 126.989 32.7665 126.787 34.1666C126.14 38.6746 125.471 43.3326 125.471 49.5V49.5987L125.49 49.6955C126.549 55.0055 128.507 59.217 131.644 62.7554C134.769 66.2804 139.011 69.0787 144.545 71.6501L145.388 69.8364C139.99 67.328 136.015 64.6718 133.14 61.4287C130.296 58.2197 128.477 54.3783 127.471 49.4009C127.478 43.4392 128.117 38.9845 128.757 34.528C128.961 33.1074 129.165 31.6866 129.348 30.2168C130.087 24.2997 130.463 17.7539 129.095 7.60076C135.272 10.0522 141.894 15.9529 147.106 23.7435C152.833 32.3027 156.744 42.9786 156.5 53.4767L158.5 53.5232Z" fill="#FF2173"/>
<path fill-rule="evenodd" clip-rule="evenodd" d="M154 56.5232C154.116 51.5107 151.975 44.2894 149.074 38.1517C147.616 35.0666 145.942 32.2016 144.216 29.9794C142.523 27.8007 140.657 26.0763 138.775 25.5385L138.225 27.4615C138.517 27.5449 138.826 27.68 139.149 27.8658C140.471 34.933 140.145 40.9428 139.466 46.0732C139.211 48.0048 138.908 49.7981 138.622 51.491C138.514 52.1296 138.409 52.754 138.309 53.3661C137.949 55.5772 137.666 57.6313 137.666 59.5V59.5987L137.685 59.6955C138.147 62.0149 138.67 63.8792 139.786 65.4549C140.913 67.0471 142.567 68.2398 145.079 69.4068L145.921 67.5931C143.567 66.499 142.263 65.4917 141.418 64.2992C140.575 63.1075 140.114 61.6282 139.666 59.4022C139.675 57.7341 139.931 55.8515 140.283 53.6873C140.379 53.0976 140.482 52.4869 140.589 51.8565L140.589 51.8562C140.876 50.153 141.189 48.3054 141.449 46.3354C142.069 41.6471 142.409 36.1874 141.505 29.8622C141.874 30.2636 142.252 30.712 142.636 31.2064C144.248 33.2808 145.85 36.0102 147.266 39.0063C150.113 45.031 152.106 51.9194 152 56.4768L154 56.5232Z" fill="#FF2173"/>
<path fill-rule="evenodd" clip-rule="evenodd" d="M164.011 55.4848C163.741 43.8489 168.582 31.5325 175.682 21.4252L175.695 21.4066L175.709 21.3885C179.672 16.2602 183.537 13.0465 186.79 10.3422C187.089 10.0935 187.383 9.84911 187.671 9.60791C190.367 7.35284 192.522 5.41819 194.001 2.88835C194 2.75948 194 2.63003 194 2.49999H194.22C194.536 1.91865 194.818 1.30505 195.064 0.648865L196.937 1.35111C196.663 2.08037 196.35 2.76225 196.003 3.406C196.065 13.5675 197.172 19.9802 198.106 25.39C198.193 25.894 198.278 26.3893 198.361 26.8782C199.37 32.8207 200.015 37.832 198.482 45.6915C196.37 56.5153 188.596 69.7079 176.393 74.9196L175.607 73.0803C187.028 68.2026 194.493 55.6906 196.519 45.3085C197.985 37.7895 197.38 33.0507 196.389 27.2129C196.306 26.7255 196.221 26.2307 196.134 25.7262L196.134 25.7262C195.286 20.8133 194.281 14.9904 194.049 6.28254C192.596 8.03995 190.85 9.55613 188.954 11.1421C188.666 11.3834 188.373 11.6267 188.077 11.8733L188.076 11.8739C184.83 14.5734 181.124 17.6558 177.305 22.5934C170.377 32.4643 165.753 44.3602 166.011 55.4383L164.011 55.4848Z" fill="#FF2173"/>
<path fill-rule="evenodd" clip-rule="evenodd" d="M168.511 58.4849C168.394 53.4724 170.536 46.2511 173.436 40.1134C174.894 37.0282 176.569 34.1633 178.295 31.9411C179.988 29.7623 181.854 28.038 183.736 27.5002L184.285 29.4232C183.993 29.5066 183.685 29.6417 183.362 29.8275C182.04 36.8947 182.366 42.9045 183.044 48.0349C183.3 49.9665 183.603 51.7598 183.889 53.4527C183.997 54.0913 184.102 54.7157 184.202 55.3277C184.562 57.5389 184.845 59.593 184.845 61.4617V61.5604L184.826 61.6572C183.819 66.7092 180.417 69.5852 175.421 71.9069L174.579 70.0931C179.277 67.9096 181.995 65.4525 182.845 61.3624C182.835 59.6947 182.58 57.8125 182.228 55.649C182.132 55.0592 182.029 54.4486 181.922 53.8182L181.922 53.8179C181.634 52.1147 181.322 50.2671 181.062 48.297C180.442 43.6088 180.102 38.1491 181.006 31.8239C180.636 32.2253 180.259 32.6737 179.875 33.1681C178.263 35.2425 176.661 37.9719 175.245 40.9679C172.397 46.9926 170.404 53.8811 170.51 58.4384L168.511 58.4849Z" fill="#FF2173"/>
<path d="M176.88 75.9927C165.323 47.1653 155.12 46.5073 143 73" stroke="#FF2173" stroke-width="2"/>
<path d="M234.325 76.0539C248 82 259.045 75.4935 271.5 83.5C285.5 92.4999 307.325 101.054 307.325 101.054" stroke="#FF2173" stroke-width="2"/>
<path d="M154 64C154 64.7658 153.5 65.5 153.5 66C153 65.5 153 65 152 65C151.352 65 151 65.5 150.5 66C150.5 65.5 150 64.5271 150 64C150 62.8954 150.896 62 152 62C153.105 62 154 62.8954 154 64Z" fill="#FF2173"/>
<path d="M164 64C164 64.7658 164.5 65.5 164.5 66C165 65.5 165 65 166 65C166.648 65 167 65.5 167.5 66C167.5 65.5 168 64.5271 168 64C168 62.8954 167.104 62 166 62C164.895 62 164 62.8954 164 64Z" fill="#FF2173"/>
<path d="M168.5 213.5C168.5 219.023 163.523 218 158 218C152.477 218 146.5 219.023 146.5 213.5C146.5 207.977 152.477 205.049 158 205.049C163.523 205.049 168.5 207.977 168.5 213.5Z" fill="#FF2173"/>
<path d="M152.499 208C152.499 208 149.5 197 157.999 197C166.499 197 162.499 208 162.499 208" stroke="#FF2173" stroke-width="2"/>
<path d="M173.003 231C173.003 242.5 162.503 248.5 157.503 255.5C153.003 249 141.5 241 142.002 231C142.503 222.5 145.003 219.5 148.003 217C159.003 217 161.003 217 167.003 217C170.5 219.5 172.5 221.5 173.003 231Z" fill="#FF2173"/>
</svg>
