<svg width="287" height="309" viewBox="0 0 287 309" fill="none" xmlns="http://www.w3.org/2000/svg">
<path d="M191.917 279.152C191.049 279.409 190.17 279.631 189.318 279.929C181.009 282.837 172.474 284.783 163.762 285.956C160.511 286.394 157.226 286.62 153.956 286.926C148.057 287.473 142.139 287.325 136.244 287.114C131.451 286.941 126.661 286.318 121.901 285.662C113.091 284.452 104.522 282.204 96.1452 279.239C88.8095 276.641 81.7227 273.484 74.8848 269.761C66.5271 265.209 58.7614 259.793 51.4257 253.747C46.3039 249.527 41.5895 244.858 37.1239 239.973C30.6821 232.924 25.0285 225.242 20.1821 217.005C14.2607 206.946 9.48214 196.374 6.15185 185.161C4.51876 179.67 3.13083 174.126 2.19171 168.48C1.52037 164.444 1.04138 160.371 0.603877 156.301C0.00419842 150.704 -0.0938622 145.081 0.0720866 139.461C0.173919 136.04 0.58502 132.627 0.818857 129.21C1.14698 124.496 1.97296 119.853 2.87059 115.221C4.79786 105.257 7.98106 95.6847 11.9337 86.3576C12.0958 85.9729 12.3334 85.6222 12.6389 85.064C13.1783 85.4487 13.6723 85.7013 14.042 86.0785C15.8448 87.9153 17.5835 89.8124 19.3938 91.634C26.3524 98.6303 33.3448 105.589 40.2921 112.593C47.4392 119.8 54.5523 127.041 61.6844 134.264C68.8126 141.49 75.9447 148.713 83.0767 155.935C91.0121 163.973 98.9588 171.999 106.887 180.043C110.432 183.641 113.954 187.262 117.473 190.879C123.052 196.616 129.889 199.844 137.772 200.715C143.938 201.394 149.935 200.508 155.615 197.834C159.236 196.129 162.449 193.9 165.259 191.045C170.743 185.474 176.295 179.972 181.801 174.424C183.446 172.768 185.015 171.037 186.659 169.381C194.757 161.238 202.88 153.122 210.967 144.972C217.476 138.409 223.952 131.809 230.436 125.22C231.503 124.134 232.521 122.998 233.57 121.893C233.8 121.652 234.037 121.411 234.313 121.226C234.893 120.833 235.32 120.962 235.486 121.656C235.629 122.248 235.655 122.881 235.648 123.496C235.58 128.829 235.429 134.162 235.425 139.499C235.399 175.582 235.403 211.66 235.395 247.743C235.395 248.599 235.369 249.455 235.357 250.311C223.209 250.308 211.061 250.308 198.913 250.285C197.868 250.285 196.827 250.13 195.782 250.085C194.783 250.04 193.783 250.002 192.784 250.04C191.913 250.074 191.732 250.3 191.649 251.175C191.626 251.413 191.634 251.65 191.634 251.888C191.634 260.37 191.626 268.849 191.645 277.331C191.645 277.938 191.826 278.541 191.92 279.149L191.917 279.152Z" fill="#4FC1B1"/>
<path d="M18.4697 72.8712C18.911 71.9245 19.1486 71.2645 19.5069 70.6761C23.7122 63.7402 28.3248 57.0985 33.6012 50.9169C36.8523 47.1076 40.1864 43.3813 43.8297 39.9529C49.0383 35.0499 54.5259 30.4863 60.368 26.3451C67.583 21.2309 75.228 16.871 83.2162 13.0994C89.1753 10.282 95.3568 8.05305 101.644 6.11069C108.075 4.12685 114.614 2.58428 121.279 1.66024C125.329 1.09828 129.41 0.751297 133.484 0.336425C139.141 -0.240624 144.813 0.0988126 150.482 0.102584C152.949 0.102584 155.427 0.377912 157.878 0.713582C162.781 1.38115 167.703 1.99969 172.557 2.95389C182.363 4.88116 191.818 7.98138 200.964 12.0132C211.785 16.7842 221.889 22.7659 231.246 29.9998C237.33 34.6992 243.021 39.8398 248.249 45.467C253.634 51.2676 258.598 57.4266 262.958 64.0457C264.61 66.55 266.133 69.1411 267.702 71.6982C267.872 71.9735 267.966 72.2904 268.147 72.7014C267.774 72.8221 267.484 72.9692 267.186 72.9994C266.714 73.0484 266.235 73.022 265.756 73.022C252.031 73.022 238.307 73.022 224.582 73.022C223.963 73.022 223.341 73.022 222.726 73.0673C221.746 73.1389 220.935 73.5123 220.207 74.2365C215.142 79.2753 210.001 84.2424 204.959 89.3039C198.2 96.0889 191.505 102.938 184.781 109.753C177.588 117.048 170.385 124.33 163.196 131.628C157.946 136.958 152.707 142.294 147.476 147.639C145.745 149.408 144.059 151.225 142.324 152.991C141.219 154.114 140.842 154.137 139.729 153.017C136.173 149.43 132.661 145.802 129.116 142.208C125.703 138.749 122.256 135.317 118.842 131.858C112.25 125.179 105.676 118.481 99.0756 111.805C89.4619 102.078 79.8256 92.3739 70.2156 82.6471C67.5717 79.9693 64.9505 77.2688 62.3821 74.5193C61.4995 73.5764 60.4963 73.1125 59.2554 73.056C58.6369 73.0296 58.0184 73.0183 57.3998 73.0183C45.1988 73.0183 32.9978 73.0182 20.8006 73.0107C20.1518 73.0107 19.5031 72.9353 18.4773 72.8674L18.4697 72.8712Z" fill="#4FC1B1"/>
<path d="M235.418 251.115C235.577 252.432 235.739 253.752 235.897 255.068C236.983 264.142 238.036 273.22 239.167 282.287C239.921 288.333 240.785 294.368 241.596 300.406C241.886 302.578 242.166 304.747 242.441 306.923C242.475 307.202 242.554 307.549 242.43 307.76C242.298 307.983 241.935 308.232 241.705 308.202C241.351 308.156 241.015 307.904 240.687 307.715C232.118 302.737 223.56 297.747 214.988 292.776C208.025 288.737 201.044 284.724 194.086 280.673C193.395 280.273 192.803 279.707 192.166 279.221C192.645 279.006 193.113 278.768 193.603 278.584C200.671 275.955 207.509 272.851 214.086 269.14C221.245 265.1 228.011 260.51 234.4 255.351C235.041 254.83 235.407 254.242 235.388 253.405C235.373 252.643 235.407 251.881 235.418 251.119V251.115Z" fill="#4FC1B1"/>
<path d="M235.418 251.115C235.407 251.877 235.373 252.639 235.388 253.401C235.403 254.238 235.041 254.826 234.4 255.347C228.011 260.51 221.241 265.096 214.086 269.136C207.512 272.847 200.671 275.951 193.603 278.58C193.112 278.761 192.645 279.002 192.166 279.217C192.079 279.198 191.996 279.175 191.913 279.149C191.819 278.542 191.638 277.938 191.638 277.331C191.619 268.853 191.626 260.37 191.626 251.888C191.626 251.651 191.619 251.409 191.641 251.175C191.724 250.3 191.909 250.074 192.777 250.04C193.772 250.002 194.776 250.04 195.775 250.085C196.82 250.131 197.861 250.281 198.905 250.285C211.054 250.304 223.202 250.304 235.35 250.312C235.373 250.579 235.395 250.847 235.418 251.111V251.115Z" fill="#46AC9E"/>
<path d="M277.426 91.9253C282.944 106.054 286.089 120.593 286.809 135.6C287.786 155.993 285.063 175.85 277.509 194.915C277.35 194.889 277.294 194.893 277.26 194.87C277.226 194.848 277.188 194.795 277.184 194.753C277.158 194.421 277.12 194.093 277.12 193.761C277.128 159.942 277.143 126.122 277.162 92.3024C277.162 92.2308 277.256 92.1629 277.43 91.9253H277.426Z" fill="#4FC1B1"/>
</svg>
